<svg id="Слой_1" data-name="Слой 1" xmlns="http://www.w3.org/2000/svg" viewBox="0 0 467 479"><defs><style>.cls-1{fill:#215477}.cls-2{fill:#fdfdfe}.cls-3{fill:#2bd973}</style></defs><title>kick</title><path class="cls-1" d="M480 584v-22c1.83-1 1.34-2.93 1.66-4.4a69.37 69.37 0 0 1 16.08-32.23c2.93-3.25 2.45-4.86-.07-8-33.85-41.7-13.34-104.19 38.63-117.41 5.07-1.29 5.8-3.29 5.64-8-1.86-54.1 51.46-91.36 101.7-71.14 3.14 1.26 4.62 1.18 6.63-2 10.41-16.69 25.36-27.42 44.34-32.6 2.79-.76 5.88-.43 8.38-2.26h20c.34.3.65.8 1 .87 25 4.19 43.39 17.61 55.09 40.06 1.46 2.8 2.71 2.4 5 1.33 11.52-5.37 23.7-8 36.37-6.88 42.93 3.74 71.92 38.15 68.54 81.21-.26 3.33.26 4.72 3.89 5.83 26.51 8.08 43.8 25.49 51.61 52.2.91 3.11.55 6.55 2.45 9.38v20c-1.83 1.18-1.37 3.27-1.74 4.92a71.74 71.74 0 0 1-17.5 33.71c-2.29 2.48-2.31 3.77-.23 6.41 14.1 17.86 19.75 38.17 14.81 60.46-6.89 31.09-26.45 50.26-57.45 57.66-2.32.55-3.57 1.07-3.41 4.14 3 55.54-52.32 94-103.5 72-3.2-1.38-4.38-.71-6.14 2-10.34 15.86-24.84 26.15-43 31.31-2.61.74-5.53.52-7.81 2.36H698c-1-1.8-2.9-1.39-4.38-1.74-20.17-4.65-35.83-15.75-46.67-33.27-2.47-4-4.26-4.34-8.43-2.8-50.53 18.65-103.9-21.54-99.17-74.73.39-4.42-.82-5.38-4.61-6.51-28.2-8.39-46-26.84-53-55.58-.36-1.41.07-3.3-1.74-4.3zm404-101c1.86 1.38 3.74 2.74 5.59 4.15 3.56 2.72 7.74 2.66 10.32-.19s2.29-6.68-1.66-9.92c-2.54-2.08-3.15-3.89-2.33-7.17 2-8.16-3.65-15.48-12-16-6-.39-11.47 1.7-16.82 4.07-2.51 1.11-4.13 3.38-3.51 6a191.75 191.75 0 0 0 8.05 26.75c1.35 3.47 4.62 4.16 8 3.21 3.1-.87 4.6-3.13 4.51-6.37 0-1.49-.14-3-.21-4.48zm-271.7 91.12c7.3-.34 14.47-4 18.71-12.46 1.68-3.34 1.56-6.5-1.87-8.76-3.15-2.08-7.14-1.09-9.61 2.25a32.54 32.54 0 0 1-2.27 3.27c-3 3.18-6.63 3.87-10.37 1.58-3.52-2.15-4.22-5.65-2.5-9.16 1.92-3.93 5.45-5.19 9.67-4 1.42.41 2.69 1.33 4.1 1.79 3.65 1.2 6.75.17 8.53-3.18s.59-6.17-2.27-8.33c-3.16-2.38-6.88-3.26-10.73-3.64-11.83-1.16-23.29 8.41-23.83 19.85-.56 11.82 8.29 20.76 22.44 20.79zm174.39-61.69c2.12.31 3.24 2.14 4.77 3.33 4 3.15 8.45 3.24 11.13.12 2.5-2.91 2-6.4-2-9.88-2.32-2-2.87-3.88-2.12-6.92 2.06-8.36-3.69-15.76-12.32-16.2-6-.3-11.46 1.81-16.78 4.19-3 1.32-4 4.18-3.15 7.17 2.27 8.17 4.66 16.31 7.32 24.37 1.21 3.68 4 5.83 8.15 4.61s5.85-4.1 4.81-8.41c-.23-.81-.5-1.59.19-2.38zm-143.06 24.84c-.78-2.47-1.28-3.88-1.66-5.32-1.15-4.39-4.11-5.83-8.31-5-3.95.79-6 3.94-4.77 8.36 2.22 8.33 4.65 16.62 7.36 24.81 1.16 3.49 4 5.21 7.93 4.18 4.15-1.08 5.46-3.8 5-7.88-.24-2.07-1.92-3.92-1-6.19a4.11 4.11 0 0 1 1 .3c2.81 1.77 5.6 3.57 8.4 5.36 5.17 3.29 9.35 3 11.72-.85 2.2-3.57.9-6.65-4.2-10-8-5.25-8-5.25-4.93-14.32 1.68-4.94.58-8.14-3.25-9.46s-7.33.48-9.08 4.75c-1.33 3.36-2.53 6.78-4.21 11.26zM553.8 578.5c3 .84 5.2 3 7.75 4.45 1.44.83 2.74 1.92 4.23 2.64 3.66 1.78 7 1.06 9.16-2.35 2.34-3.62 1.1-6.64-2.37-8.9-2.93-1.91-6.65-3.24-8.58-5.88-2.43-3.33 1.33-6.67 2.18-10 1.16-4.58.24-7.73-3.56-8.92-4.13-1.29-7.21.22-8.87 4.23-1.45 3.52-2.71 7.12-4.38 11.54-.85-2.55-1.33-4.12-1.9-5.67-1.5-4.07-4.71-5.81-8.64-4.39s-5.26 4.08-3.94 8.27c2.55 8.07 4.84 16.22 7.23 24.33 1.11 3.74 3.47 5.6 7.45 4.78s6-3.92 5.31-8.18c-.33-1.97-1.5-3.75-1.07-5.95zm178-49.77c-.08 3.48 1.37 6 4.68 6.91s6.22-.3 8-3.41c3.25-5.58 9.92-7.48 16.12-4.74 3.18 1.41 6.27 1 8.64-1.72 2.14-2.46 2.27-5.38.1-7.75-6.86-7.48-13.74-15-21-22.06a6.67 6.67 0 0 0-11.13 3.35c-2.12 9.69-3.65 19.6-5.43 29.42zm-48.2-16.88a17.54 17.54 0 0 0-6.83 1.46c-7.08 2.49-10.67 7.87-9.75 14.35.87 6.07 5.09 9.11 13.14 9.5 2.14.1 4.4-.16 6.19 1.36a1.07 1.07 0 0 1-.25 1.71c-2 1.31-3.86-.13-5.7-.6-4-1-7.14-.07-8.58 3.81-1.55 4.18 1.15 6.59 4.58 8.15 6.7 3.05 17.81 0 22.14-6a12.09 12.09 0 0 0-6.46-18.84c-3.1-1-6.27-.6-9.4-1-1.13-.14-2.62-.39-2.18-2 .31-1.12 1.64-.85 2.6-.71s1.61.44 2.42.59c3.65.66 7 .07 7.85-4s-1.83-6.13-5.37-7.14a32.54 32.54 0 0 0-4.43-.64zm166.29-35.69c2.25-2.45 5.16-2.29 7.41-3.48 3-1.61 4.54-4 3.45-7.38a5.28 5.28 0 0 0-6.72-3.7c-5.31 1.32-10.59 2.84-15.75 4.68a5.63 5.63 0 0 0-3.82 7.2q3.51 12.47 7.45 24.81c1.27 3.94 4.28 5.32 8.31 4.19s8.33-2.28 12.44-3.59c3.71-1.19 7.06-3.11 5.7-7.79s-5.09-4.46-9-3.73c-2 .37-5 2.59-5.74.54-1-2.78 2.88-2.12 4.53-3.11 2.1-1.25 4.09-2.52 3.37-5.38s-3-3.66-5.8-3.39c-1.72.17-3.38 1.58-5.85.12zm-28.59 34.77c5.49.05 8.6-3.83 7.37-8.84s-2.85-9.92-4.43-14.84c-.89-2.76-.8-4.52 2.59-5.55s5.7-3.77 4.27-7.72-4.61-4.29-8.24-3.21c-6.22 1.86-12.49 3.56-18.69 5.48-3.72 1.15-7.1 3.05-5.94 7.74 1.11 4.48 4.89 4.73 8.46 3.77 3.09-.83 3.75.68 4.41 3 1.35 4.81 2.79 9.6 4.28 14.36 1 3.25 2.79 5.71 5.92 5.81zm-101.77 30.32c5.2-.08 8-3.51 6.85-8.36-1.25-5.16-2.79-10.27-4.46-15.31-.88-2.64-.91-4.29 2.25-5.2 3.92-1.13 6-3.95 4.57-8s-5-4-8.37-3c-6.4 1.78-12.75 3.76-19.11 5.69-3.77 1.14-6.36 3.36-5.2 7.65 1.1 4.06 4.34 4.84 7.93 3.71 3.11-1 4.18.42 4.91 3.07q2.06 7.45 4.42 14.81c1 3.11 3 5.14 6.21 4.94zm-128.21 32.7c-2.48-8.31-4.57-18.08-8.59-27.2-1.38-3.14-4.75-3.41-7.85-2.28-3.25 1.18-4.8 3.73-4 7.09a222.75 222.75 0 0 0 7.94 26.68c1.17 3.26 4.14 4.24 7.4 3.45s5.09-2.93 5.1-7.74z" transform="translate(-480 -284)"/><path class="cls-2" d="M612.3 574.12c-14.14 0-23-9-22.44-20.76.54-11.44 12-21 23.83-19.85 3.85.38 7.57 1.26 10.73 3.64 2.86 2.16 4 5.09 2.27 8.33s-4.88 4.38-8.53 3.18c-1.41-.46-2.68-1.38-4.1-1.79-4.22-1.22-7.75 0-9.67 4-1.72 3.51-1 7 2.5 9.16 3.74 2.29 7.36 1.6 10.37-1.58a32.54 32.54 0 0 0 2.27-3.27c2.46-3.35 6.46-4.33 9.61-2.25 3.43 2.27 3.55 5.42 1.87 8.76-4.24 8.41-11.41 12.1-18.71 12.43z" transform="translate(-480 -284)"/><path class="cls-3" d="M786.69 512.43c-.71.79-.42 1.58-.23 2.38 1 4.32-.59 7.18-4.81 8.41s-6.93-.93-8.15-4.61c-2.65-8.05-5-16.2-7.32-24.37-.83-3 .19-5.84 3.15-7.17 5.32-2.38 10.79-4.5 16.78-4.19 8.63.44 14.37 7.84 12.32 16.2-.75 3-.2 4.9 2.12 6.92 4 3.48 4.53 7 2 9.88-2.68 3.12-7.11 3-11.13-.12-1.49-1.19-2.61-3.02-4.73-3.33z" transform="translate(-480 -284)"/><path class="cls-2" d="M643.63 537.27c1.68-4.47 2.87-7.9 4.25-11.25 1.74-4.27 5.28-6.05 9.08-4.75s4.93 4.52 3.25 9.46c-3.08 9.06-3.08 9.06 4.93 14.32 5.11 3.35 6.41 6.44 4.2 10-2.37 3.84-6.56 4.14-11.72.85-2.8-1.79-5.59-3.59-8.4-5.36a4.11 4.11 0 0 0-1-.3c-.95 2.26.74 4.12 1 6.19.47 4.08-.84 6.8-5 7.88-3.95 1-6.77-.7-7.93-4.18-2.72-8.18-5.14-16.47-7.36-24.81-1.18-4.42.83-7.57 4.77-8.36 4.2-.84 7.16.6 8.31 5 .34 1.43.84 2.83 1.62 5.31z" transform="translate(-480 -284)"/><path class="cls-3" d="M883.94 483.06c.07 1.49.17 3 .21 4.48.09 3.24-1.41 5.5-4.51 6.37-3.39 1-6.66.26-8-3.21a191.75 191.75 0 0 1-8.05-26.75c-.61-2.66 1-4.93 3.51-6 5.34-2.37 10.81-4.46 16.82-4.07 8.39.54 14.08 7.85 12 16-.82 3.28-.21 5.09 2.33 7.17 4 3.24 4.35 7 1.66 9.92s-6.76 2.91-10.32.19c-1.84-1.41-3.72-2.77-5.59-4.15l-.48-.13z" transform="translate(-480 -284)"/><path class="cls-2" d="M553.8 578.5c-.43 2.2.74 4 1.07 5.91.73 4.26-1.24 7.34-5.31 8.18s-6.35-1-7.45-4.78c-2.4-8.12-4.68-16.27-7.23-24.33-1.32-4.19 0-6.86 3.94-8.27s7.14.32 8.64 4.39c.57 1.54 1.05 3.12 1.9 5.67 1.67-4.42 2.93-8 4.38-11.54 1.65-4 4.74-5.51 8.87-4.23 3.81 1.19 4.73 4.34 3.56 8.92-.86 3.37-4.61 6.71-2.18 10 1.93 2.64 5.65 4 8.58 5.88 3.47 2.26 4.72 5.28 2.37 8.9-2.2 3.41-5.49 4.13-9.16 2.35-1.49-.72-2.79-1.81-4.23-2.64-2.55-1.44-4.74-3.57-7.75-4.41z" transform="translate(-480 -284)"/><path class="cls-3" d="M731.78 528.73c1.79-9.81 3.32-19.69 5.46-29.42a6.67 6.67 0 0 1 11.13-3.31c7.25 7.1 14.13 14.58 21 22.06 2.17 2.36 2 5.29-.1 7.75-2.37 2.72-5.46 3.13-8.64 1.72-6.2-2.74-12.87-.83-16.12 4.74-1.82 3.12-4.59 4.41-8 3.41s-4.81-3.48-4.73-6.95zm-48.21-16.88a32.54 32.54 0 0 1 4.42.66c3.54 1 6.22 3.14 5.37 7.14s-4.2 4.7-7.85 4c-.82-.15-1.6-.46-2.42-.59s-2.29-.42-2.6.71c-.44 1.59 1 1.85 2.18 2 3.12.38 6.3 0 9.4 1a12.09 12.09 0 0 1 6.46 18.84c-4.33 6-15.44 9-22.14 6-3.43-1.56-6.13-4-4.58-8.15 1.44-3.88 4.62-4.83 8.58-3.81 1.84.47 3.67 1.92 5.7.6a1.07 1.07 0 0 0 .25-1.71c-1.79-1.52-4.05-1.26-6.19-1.36-8.06-.39-12.28-3.43-13.14-9.5-.93-6.48 2.67-11.86 9.75-14.35a17.54 17.54 0 0 1 6.81-1.48zm166.3-35.7c2.47 1.46 4.12 0 5.87-.13 2.79-.27 5 .39 5.8 3.39s-1.27 4.13-3.37 5.38c-1.65 1-5.51.33-4.53 3.11.72 2.06 3.77-.17 5.74-.54 3.88-.73 7.64-.9 9 3.73s-2 6.6-5.7 7.79c-4.11 1.32-8.29 2.43-12.44 3.59s-7-.24-8.31-4.19q-4-12.33-7.45-24.81a5.63 5.63 0 0 1 3.82-7.2c5.15-1.84 10.43-3.36 15.75-4.68a5.28 5.28 0 0 1 6.72 3.7c1.09 3.34-.42 5.77-3.45 7.38-2.32 1.2-5.21 1.03-7.45 3.48zm-28.57 34.78c-3.13-.1-4.92-2.56-5.93-5.79-1.49-4.77-2.93-9.55-4.28-14.36-.65-2.33-1.32-3.84-4.41-3-3.57 1-7.35.71-8.46-3.77-1.16-4.69 2.22-6.59 5.94-7.74 6.2-1.92 12.47-3.62 18.69-5.48 3.63-1.08 6.8-.74 8.24 3.21s-.75 6.65-4.27 7.72-3.48 2.79-2.59 5.55c1.58 4.91 3.19 9.83 4.43 14.84s-1.87 8.89-7.36 8.82zm-101.77 30.32c-3.21.2-5.21-1.82-6.2-5q-2.35-7.36-4.42-14.81c-.73-2.65-1.81-4-4.91-3.07-3.59 1.12-6.83.35-7.93-3.71-1.16-4.29 1.42-6.51 5.2-7.65 6.36-1.93 12.71-3.91 19.11-5.69 3.39-.94 7-1.07 8.37 3s-.65 6.86-4.57 8c-3.16.91-3.13 2.56-2.25 5.2 1.67 5 3.2 10.15 4.46 15.31 1.17 4.91-1.66 8.34-6.86 8.42z" transform="translate(-480 -284)"/><path class="cls-2" d="M591.32 573.95c0 4.82-1.89 6.95-5.15 7.73s-6.23-.19-7.4-3.45a222.75 222.75 0 0 1-7.94-26.68c-.75-3.36.8-5.9 4-7.09 3.1-1.13 6.47-.86 7.85 2.28 4.07 9.13 6.15 18.9 8.64 27.21z" transform="translate(-480 -284)"/><path class="cls-1" d="M770.94 382.06l-.4-.21.48.13z" transform="translate(-480 -284)"/></svg>