<svg id="Слой_1" data-name="Слой 1" xmlns="http://www.w3.org/2000/svg" viewBox="0 0 1222.79 296.11"><defs><style>.cls-1{fill:#a2a2a2}</style></defs><title>Безымянный-3</title><path class="cls-1" d="M-51 226c10.28 2 20.69 3.53 30.33 7.9 40.14 18.18 64.9 48.47 69.71 92.71 5.66 52-22.06 96.65-70.08 116-42.57 17.17-81.86 8.61-116.44-20.7-26-22.06-37.21-51.48-37.51-85-.25-27.1 10-50.73 27-71.41 18.18-22.08 42-34.29 70.09-38.65A21.4 21.4 0 0 0-75 226zm-11.72 137c14.21.05 24.69-10.3 24.72-24.4 0-13.94-10.28-24.49-24-24.59-14.26-.11-24.89 10.17-25 24.15-.08 14.24 10.23 24.79 24.28 24.84zm-47.6 5a63.6 63.6 0 0 0-15.63 20c-4.18 8.22-2.42 12.7 6.58 16.62a113.52 113.52 0 0 1 9.05-36.62zm74.68 20.15c5.18 6.76 12 11.49 19.3 15.5 7.89 4.33 10.76 3.8 16.86-2.78.67-.72 1.71-1.42 1.43-2.48-.39-1.46-1.87-1.15-3-1.19-12.18-.46-23.49-4.13-34.59-9.09zm-44.39 37c.11-.42.24-.61.18-.73-4.4-10.42-8.58-20.91-9.41-32.38 0-.55-.58-1.46-1-1.5-1-.1-1.28.86-1.49 1.65a64 64 0 0 0-2.18 18.26c.21 11.63 1.53 13.18 13.08 14.85a3.64 3.64 0 0 0 .85-.17zM-91.16 292c-4.52-6.94-11.38-10.89-18.33-14.62-7.94-4.25-11-3.45-16.46 3.57-1.24 1.59-1.39 2.8 1 2.94 11.69.71 22.75 3.94 33.79 8.11zm45.51-35.69a92.13 92.13 0 0 1 10.35 36.41c3.38-6.26 4.53-13.6 4.16-23.57s-3.22-12.72-14.5-12.87zm-72.42 84.91c-8.93.49-16.21 4.51-23.2 9.25s-7.38 5.63-4.75 13.84c.39 1.22.37 3 1.81 3.3 1.61.32 2-1.52 2.61-2.59a59.32 59.32 0 0 1 13.6-15.78c3.37-2.65 6.64-5.36 9.94-8.04zm7.23-28.75a49.79 49.79 0 0 0-25.65-2.94c-8.14 1-8.12 1.23-9.84 9.15-.24 1.12-.84 2.34.13 3.3 1.24 1.23 2.55.25 3.65-.33 6.11-3.18 12.81-4.58 19.3-6.64 3.78-1.22 7.92-.47 12.42-2.56zm96.88-.33c2.27-.17 3.39-2 4.61-3.39a75.06 75.06 0 0 0 9.47-14C5 285.59 5 285.57-2 278.14c-.78-.84-1.48-2.17-2.72-1.87-1.76.42-1.12 2.16-1.18 3.37a76.3 76.3 0 0 1-7.21 28.74c-.49 1.13-1.6 2.18-.89 3.74zm6.67 27.83c2.58 1.51 4.27.46 5.9-.09a68.15 68.15 0 0 0 17.24-8.74c7.43-5.15 8.31-9.1 3.24-18.22a89 89 0 0 1-26.37 27.03zm-55.58-55.33A46.07 46.07 0 0 0-72.68 261c-5.16-6.5-9.95-7-17.47-1.58 11.61 5.8 19.65 15.21 27.28 25.19zm85.7 72.71a124.73 124.73 0 0 1-37 11.39 56.88 56.88 0 0 0 30.42 2.23 4.13 4.13 0 0 0 3.53-3c.93-3.2 1.82-6.34 3.05-10.64zm-85.11 39.19c1.22 8.89 5.07 16.5 10.05 23.68 4.59 6.61 10.12 7.4 17 1.84-11.12-6.39-19.38-15.61-27.05-25.54zM542 478.25c-4.57 4.09-8.35 6.82-13.21 7.92-15.1 3.43-26.71-5.48-26.89-21q-.16-13.25 0-26.5c.16-13.86 8-21.7 21.8-21.76h33c3.47 0 6.34.43 6.45 4.94.11 4.74-2.72 5.51-6.5 5.36a34.26 34.26 0 0 0-3.5.05c-2 .12-3 .93-1.37 2.74 2.4 2.6 2.35 5.73 2.35 8.92 0 20.33.06 40.67 0 61 0 14.52-7.72 22.18-22.19 22.22-5.67 0-11.33-.05-17 0-4 0-5.76-2.08-5.84-5.86s1.64-6.1 5.57-6.19c5.83-.12 11.67 0 17.5-.12 7-.12 9.68-2.75 9.79-9.72s.04-13.86.04-22zm-27.9-27.07h-.1v11.47c.08 7.8 3.83 11.55 12 12.09 8 .53 15.37-4.44 15.7-11.34.42-8.62.29-17.29 0-25.93-.15-5-3.32-7.94-8.28-8.3a100.57 100.57 0 0 0-10.47-.08c-5.65.18-8.55 2.89-8.89 8.62-.16 4.48.05 8.98.05 13.47zM112.82 439v-45.44c0-5.88.75-6.59 6.67-6.63 7.49 0 15-.09 22.47 0 16.94.25 28.44 11 28.93 28 .47 16.46.5 33 0 49.42-.54 17.12-11.85 27.56-29 27.78-7.65.1-15.31-.11-23 .07-4.54.11-6.2-1.81-6.16-6.26.17-15.68.09-31.33.09-46.94zm11.26.52v34.93c0 3.42.94 6.05 4.78 6.28 6.14.37 12.32.59 18.34-1.11 6.84-1.93 11.55-7.3 11.67-14.53q.4-25.44 0-50.89c-.13-7.95-5.66-13.6-13.46-15.11a64.76 64.76 0 0 0-13.91-.89c-6 .14-7.36 1.38-7.39 7.39-.11 11.27-.03 22.58-.03 33.89zm229.22-109.7a23.33 23.33 0 0 1-20.88 8.82c-11.75-.94-18.73-8.72-19.25-21.55-.45-11.14-.43-22.33 0-33.47.37-8.77 3.66-16.45 12.54-19.95 9.2-3.63 17.64-1.64 25.14 4.65.62.52 1.25 1 1.88 1.53 1.68-1.26 1.07-2.88 1.08-4.27.06-9 0-18 0-27 0-7.58.71-8.66 5.63-8.73 5.31-.07 6.51 1.48 6.52 8.63v57c0 12 .06 24 0 36 0 5.65-3.85 8.19-9 6.25-2.17-.88-2.57-1.73-3.66-7.91zm-28.12-29.16c0 4.83-.09 9.67 0 14.49.08 3.23.7 6.52 3.57 8.44 5.44 3.64 11.46 3.3 17.26 1.21 5.51-2 7.63-6.71 7.76-12.29.14-6.16.08-12.33 0-18.49 0-3.65.33-7.33-1-10.88-2.42-6.48-9.43-10.06-17.25-8.72-7.55 1.29-10.27 4.57-10.43 12.75.02 4.49.09 8.99.09 13.49zm613.05 30.1c-6.2 6-13.08 8.9-21.18 7.71-10.8-1.58-17.68-9-18-19.92-.37-12.3-.44-24.63.05-36.92.32-7.88 3.85-14.63 11.62-17.81 8.66-3.55 17-2.25 24.51 3.34 1 .76 1.92 1.71 3.2 2.87 1.12-3 1-6.4 4.85-7.09 6.08-1.09 8.55 1 8.59 8.14q.15 29.19 0 58.38c0 3.61.21 7.64-4.86 8.5-4.89.82-6.58-.46-8.78-7.2zm-27.16-30.71v16c0 2.79.59 5.44 2.85 7.16 5.45 4.15 11.66 3.8 17.55 1.61 5.06-1.88 7.66-6.06 7.58-11.74-.11-7.81 0-15.63 0-23.44-.06-11.85-9.91-18.56-21.1-14.37-4.32 1.61-6.84 4.58-6.85 9.36-.03 5.12-.02 10.27-.03 15.42zM217.93 454.44c0-5.66-.16-11.33 0-17 .43-12.59 8.49-20.4 21-20.55h11.5c12.82.11 20.57 7.31 21.45 20.16a99.29 99.29 0 0 1 0 12.49c-.42 7.29-4.49 11.27-11.86 11.48s-14.66.05-22 .08c-6.88 0-7.89.86-8 6.51-.22 8.26 2.2 12.09 8.31 12.28 8 .26 16 .07 24 .16 2.73 0 5.41.38 6.42 3.6 1.53 4.9-.76 8.32-5.91 8.41-8 .13-16 .1-24 0-12.3-.11-20.38-7.83-20.9-20.16-.2-5.78 0-11.62-.01-17.46zm27.31-4.6h9c3.64 0 5.66-1.58 5.63-5.37 0-2.33.14-4.68-.08-7-.53-5.7-3.34-8.29-9.08-8.47-3.16-.1-6.33-.05-9.49 0-9.38.06-15.06 10-10.57 18.44 1 1.86 2.69 2.37 4.62 2.38 3.31.04 6.64.03 9.97.03zm372.89-22.77c-4.27 0-6.92.11-9.55 0-3-.16-4.42-2.06-4.45-5s1.38-5 4.38-5c13.66-.06 27.36-.52 41 .33 9.41.59 16 8.58 16.34 19.2.52 16.65.18 33.33.18 50 0 4-2.25 5.53-6.08 5.54-4.24 0-6-2-6-6.13v-44c0-10.34-2.65-12.92-13.05-12.94-14 0-14.92 1-14.92 15.13 0 13.33.06 26.67-.07 40 0 3.63 0 7.63-5.39 7.93-5.16.28-7.26-1.21-7.31-6.41-.14-15.83-.07-31.66 0-47.5-.09-3.77 1.29-7.11 4.92-11.15zM218.78 273.1h-9c-3.28 0-4.84-1.61-4.89-4.93-.06-3.5 1.44-5.31 5-5.3 12.83 0 25.66-.21 38.48.14 9.26.25 17.28 8.17 17.55 18 .48 17.31.18 34.65.2 52 0 3.61-2 5-5.38 5.09s-6.18-.75-6.46-4.58c-.33-4.48-.24-9-.25-13.48 0-11.66.05-23.32 0-35-.06-7.3-2.72-9.86-10-10-2.83-.05-5.67-.07-8.5 0-6.6.19-9.35 2.87-9.4 9.59-.1 15.49-.06 31 0 46.48 0 3.68-.67 6.66-5.22 6.95-4.81.3-6.86-1.3-6.88-6.19-.08-16.49 0-33-.06-49.48-.12-3.39 1.5-5.98 4.81-9.29zM460.69 327c3.09 1.49 5.61.76 8 .95 3.22.25 5 1.92 4.95 5.07s-1.76 5-5 5c-11.82 0-23.66.43-35.44-.2-10.73-.58-18-8.51-18.22-19.59-.34-16.47 0-33-.1-49.43 0-4.54 2.2-6.08 6.54-6 4.5 0 5.65 2.35 5.63 6.33-.09 15-.08 30 0 44.94 0 9.17 2.74 11.84 11.94 11.9 15.37.1 16-.57 16-16v-39.95c0-3.46.38-6.77 5-7.17 5.33-.45 7 .85 7 6.26.06 14.81-.06 29.63.05 44.44.21 5.37-1.77 9.65-6.35 13.45zM342.5 415.92c13.28-.07 22.34 8.38 21.66 20-.19 3.18-1.39 5-4.75 5.13-3.17.09-5.83-.08-6.71-4.17-1.45-6.73-4.43-9-10.53-8.92-4 0-7.25 1.44-8.6 5.47-1.4 4.2.11 7.71 3.75 9.9 5.27 3.16 10.81 5.87 16.18 8.87 4.26 2.38 8 5.33 10.48 9.71 4.86 8.59 3.64 17.91-3.77 24.48-7.81 6.93-16.89 8.11-26.6 4.68-8.77-3.1-14-9.23-15.39-18.53-.55-3.79 0-7.08 4.44-8.16 4.09-1 6.73.82 7.38 5a13.53 13.53 0 0 0 20.89 9.43c4.45-2.77 5-7.68 1.34-12-2.32-2.7-5.42-4.37-8.53-6-4.72-2.47-9.6-4.61-14-7.64-8.38-5.75-11.45-13.07-9-21.78a21.13 21.13 0 0 1 19.79-15.55c.64.06 1.31.08 1.97.08zm200.07-154.04c11.8 0 20.64 7.07 21.41 17.27.28 3.63.26 7.25-4.67 7.84-4.46.54-6.75-1.28-7.4-5.91-.74-5.27-6-8.34-11.67-7.32-5 .91-7.85 4.74-7.17 9.68.46 3.37 2.8 5.23 5.44 6.72 5.08 2.85 10.4 5.29 15.36 8.32 6.43 3.93 11.66 8.93 12.25 17.15.93 13-7.61 22-21.94 23.16-13.43 1.11-25.91-9.31-26.25-21.82-.11-3.88 1-6.58 5.34-6.86 3.67-.24 6 1.16 6.67 5.09 1.65 9.56 10.08 14.15 18.77 10.36 5.9-2.57 7.22-8.72 2.78-13.42-2.31-2.45-5.29-4-8.27-5.53-4.75-2.42-9.59-4.64-14-7.68-8.34-5.76-11.25-13.29-8.54-22.44 2.53-8.53 10.12-14.25 19.39-14.6.83-.04 1.66-.01 2.5-.01zm-408.76 23.26v-32c0-8.55-.5-9-9-9.24-6.06-.15-7.94-1.55-7.95-5.84 0-3.17 1.28-5.16 4.66-5.17H158c2.93 0 4.67 1.65 4.9 4.6s-.87 5.37-4.08 5.89a54.86 54.86 0 0 1-8 .52c-3.32 0-4.84 1.6-4.83 4.92v72.46c0 4 2 5.72 5.88 5.65a43.88 43.88 0 0 1 6.48.24c3.17.42 4.52 2.58 4.52 5.62 0 3.2-1.69 5.12-4.87 5.14q-18.24.13-36.48 0c-3.24 0-4.66-2.18-4.71-5.31s1.25-5.12 4.49-5.52a29.08 29.08 0 0 1 3-.13c8.88-.17 9.39-.68 9.42-9.85.11-10.65.09-21.31.09-31.98zm897.19-3.92v37.48c0 8.05.15 8.19 8 8.27h2.5c3.64 0 6.29 1.43 6.34 5.44s-2.45 5.57-6.16 5.6h-33.98c-4.05 0-6.4-1.87-6.35-6 0-3.83 2.72-4.89 6.09-5.12 10.61-.72 10.61-.75 10.61-11.66v-64.46c0-6.31-.56-6.76-6.83-7a25.72 25.72 0 0 1-6.4-.71c-2.79-.82-3.75-3.19-3.4-5.94s1.88-4.3 4.64-4.32c6.66-.06 13.33-.19 20 0 4.57.16 4.93 3.82 4.95 7.27.06 13.66 0 27.32 0 41zm-402.15 18.05c0-6.16-.16-12.32 0-18.48.16-4.76-1.49-7.2-6.6-7-3.67.18-6.67-1.19-7-5.42-.35-3.94 1.22-6.27 5.57-6.53 7.62-.45 8-1 8-8.62 0-3.66 0-7.33.06-11 .07-4.15 2.67-5.33 6.32-5.29s5.78 1.44 5.83 5.26c.06 4.33 0 8.66.08 13 .1 5.62 1.09 6.56 6.85 6.67h7c3.15 0 5 1.26 5.18 4.66s-.24 6.58-4.46 7a81.59 81.59 0 0 1-9.47.29c-3.49 0-5.23 1.43-5.22 5.06.06 12.49-.09 25 .08 37.46.08 6.14 3.24 9.11 9.3 9.44 1.83.1 3.66 0 5.49.12 3.91.22 5 2.85 5 6.18 0 3.15-1.22 5.36-4.8 5.87-16.86 2.39-27.14-6.36-27.18-23.28-.04-5.07-.03-10.23-.03-15.39zm106.85-28.75a25.45 25.45 0 0 1 19.71-8.52c5.5 0 6.64 1.27 6.8 6.24.16 4.76-2.31 6.08-6.53 5.92-3.82-.15-7.63-.13-11.35 1.2-5.12 1.83-8.16 5.3-8.24 10.72-.18 12-.06 24-.12 36 0 3.68 1.86 5 5.31 4.94a69.71 69.71 0 0 1 7.49.14c3.37.28 5.12 2.3 5 5.65-.09 3.12-1.88 5.12-5 5.16q-16.74.19-33.48 0c-3.49 0-5-2.48-5-5.68s1.89-4.73 4.95-5.2c7.75-1.18 7.75-1.22 7.75-9.1 0-16-.06-32 0-48 0-6 2.25-7.73 8-7.1 4.33.46 3.82 3.87 4.71 7.63zM446.93 454.79v29c0 6.72-1.33 8.32-6.42 8.35-5.28 0-6.51-1.45-6.52-8.13v-46.93c0-8.88 0-8.87-8.7-9.05a16.66 16.66 0 0 1-4-.33 5.11 5.11 0 0 1-4.08-6c.31-2.81 1.87-4.66 4.87-4.7q9.73-.11 19.47 0c4.58 0 5.31 3.31 5.33 6.89.05 10.32 0 20.64 0 31zM844 300.5c0 10 .06 20 0 30-.05 6-1.62 7.67-6.7 7.58-4.76-.09-6.17-1.66-6.19-7.57-.07-16.49 0-33 0-49.47 0-6.56-.48-7-7.18-7.09-1.17 0-2.33 0-3.49-.11-3.63-.3-6.12-2-6-5.91.11-4.13 2.9-5.13 6.53-5.08 5.5.09 11 .16 16.49 0 4.81-.16 6.61 2.3 6.61 6.7v31zm-8.48-73.66A11.43 11.43 0 0 1 847 238.19a12.27 12.27 0 0 1-11.89 11.73 11.34 11.34 0 0 1-11.19-11.56c-.03-6.81 4.81-11.59 11.6-11.52zM426.84 392.33a11.14 11.14 0 0 1 11.23-11.43 11.61 11.61 0 0 1 11.82 11.57c0 5.86-5.64 11.5-11.52 11.53a11.28 11.28 0 0 1-11.53-11.67z" transform="translate(174.99 -226)"/><path class="cls-1" d="M-54.07 338.32a8.72 8.72 0 0 1-8.49 8.62 8.73 8.73 0 0 1-8.37-8.25 8.72 8.72 0 0 1 8.5-8.62 8.73 8.73 0 0 1 8.36 8.25z" transform="translate(174.99 -226)"/></svg>