<svg id="Слой_1" xmlns="http://www.w3.org/2000/svg" viewBox="0 0 22 22.4"><style>.st0{fill:#63757e}</style><title>search</title><path class="st0" d="M12.6 0c4.8.1 8.8 3.7 9.3 8.4.6 5.1-3.1 9.7-8.2 10.4-2 .3-4.1-.1-5.8-1.1-.3-.2-.6-.1-.8.1-1.4 1.5-2.9 2.9-4.3 4.4-.3.3-.4.3-.7 0-.6-.6-1.2-1.3-1.8-1.8-.3-.3-.3-.5 0-.7 1.5-1.4 2.9-2.9 4.3-4.3.2-.1.3-.4.1-.6v-.1C1.8 10.4 3 4.5 7.4 1.7c.1 0 .1-.1.2-.1C9 .5 10.7 0 12.6 0zm6 9.4c0-3.4-2.6-6.1-6-6.2h-.1c-3.4 0-6.2 2.7-6.2 6v.1c0 3.4 2.7 6.2 6.1 6.2 3.5.1 6.2-2.7 6.2-6.1z"/></svg>